<svg width="18" height="18" viewBox="0 0 18 18" fill="none" xmlns="http://www.w3.org/2000/svg">
<path d="M16.4661 18L10.2169 11.7C9.72097 12.1 9.1506 12.4167 8.50585 12.65C7.86109 12.8833 7.175 13 6.44758 13C4.64556 13 3.12063 12.371 1.87277 11.113C0.624258 9.85433 0 8.31667 0 6.5C0 4.68333 0.624258 3.14567 1.87277 1.887C3.12063 0.629 4.64556 0 6.44758 0C8.2496 0 9.77486 0.629 11.0234 1.887C12.2712 3.14567 12.8952 4.68333 12.8952 6.5C12.8952 7.23333 12.7794 7.925 12.548 8.575C12.3165 9.225 12.0024 9.8 11.6056 10.3L17.8548 16.6L16.4661 18ZM6.44758 11C7.6875 11 8.7416 10.5627 9.60987 9.688C10.4775 8.81267 10.9113 7.75 10.9113 6.5C10.9113 5.25 10.4775 4.18733 9.60987 3.312C8.7416 2.43733 7.6875 2 6.44758 2C5.20766 2 4.15356 2.43733 3.28529 3.312C2.41768 4.18733 1.98387 5.25 1.98387 6.5C1.98387 7.75 2.41768 8.81267 3.28529 9.688C4.15356 10.5627 5.20766 11 6.44758 11Z" fill="white"/>
</svg>
